<?xml version="1.0" encoding="iso-8859-1"?>
<!-- Generator: Adobe Illustrator 19.0.0, SVG Export Plug-In . SVG Version: 6.00 Build 0)  -->
<svg version="1.1" id="Layer_1" xmlns="http://www.w3.org/2000/svg" xmlns:xlink="http://www.w3.org/1999/xlink" x="0px" y="0px"
	 viewBox="0 0 330.619 330.619" style="enable-background:new 0 0 330.619 330.619;" xml:space="preserve">
<g id="XMLID_476_">
	<path id="XMLID_477_" d="M78.737,0c-27.57,0-50,22.43-50,50s22.43,50,50,50s50-22.43,50-50S106.308,0,78.737,0z M78.737,70
		c-11.028,0-20-8.972-20-20c0-11.028,8.972-20,20-20c11.028,0,20,8.972,20,20C98.737,61.028,89.765,70,78.737,70z"/>
	<path id="XMLID_481_" d="M276.275,280.119c-13.22,13.22-30.797,20.5-49.493,20.5c-18.696,0-36.273-7.281-49.493-20.5
		c-27.291-27.292-27.291-71.697-0.001-98.987c13.221-13.22,30.798-20.501,49.494-20.501s36.273,7.281,49.492,20.501
		c5.858,5.857,15.355,5.858,21.213,0.001c5.858-5.858,5.858-15.355,0.001-21.213c-18.886-18.887-43.997-29.288-70.706-29.288
		c-0.002,0,0.001,0-0.001,0c-26.708,0-51.82,10.402-70.706,29.288c-38.987,38.987-38.987,102.424,0,141.413
		c18.886,18.886,43.997,29.287,70.706,29.287c26.709,0,51.82-10.401,70.706-29.288c5.858-5.858,5.858-15.355,0-21.213
		C291.631,274.261,282.133,274.26,276.275,280.119z"/>
</g>
<g>
</g>
<g>
</g>
<g>
</g>
<g>
</g>
<g>
</g>
<g>
</g>
<g>
</g>
<g>
</g>
<g>
</g>
<g>
</g>
<g>
</g>
<g>
</g>
<g>
</g>
<g>
</g>
<g>
</g>
</svg>
